<svg width="1980" height="752" viewBox="0 0 1980 752" fill="none" xmlns="http://www.w3.org/2000/svg">
<path fill-rule="evenodd" clip-rule="evenodd" d="M739.548 453.142C943.546 377.891 1817.21 21.0928 1830.56 12.1351C1680.89 47.3999 1674.42 49.8827 1615.06 69.5354C1500.81 107.355 1363.85 163.093 1198.62 223.922C1037.81 -26.2134 616.994 147.211 739.548 453.142Z" fill="#FBFBFB"/>
<path fill-rule="evenodd" clip-rule="evenodd" d="M607.611 517.334C-208.678 837.449 227.713 745.033 700.359 546.314C748 526.283 728 534 764.5 520.5C897.895 781.201 1349.53 609.043 1226.8 295.261C1030.15 373.4 -100.857 854.249 607.611 517.334Z" fill="#FBFBFB"/>
<path fill-rule="evenodd" clip-rule="evenodd" d="M607.535 455.052C550.437 85.5855 940.594 -127.486 1191.09 83.3199C953.107 -58.8788 641.824 128.955 698.781 442.137L607.535 455.052Z" fill="#FBFBFB"/>
<path fill-rule="evenodd" clip-rule="evenodd" d="M574.172 336.257C553.891 384.74 555.515 438.26 570.427 462.803L0 524.92L574.175 336.254L574.172 336.257Z" fill="#FBFBFB"/>
<path fill-rule="evenodd" clip-rule="evenodd" d="M1369.6 316.139C1408.97 688.161 1009.12 879.979 769 656.009C999.902 810.793 1319.78 639.941 1277.85 324.134L1369.6 316.139Z" fill="#FBFBFB"/>
<path fill-rule="evenodd" clip-rule="evenodd" d="M1397.24 436.561C1419.82 389.237 1420.75 335.7 1407.03 310.391L1979.72 279L1397.24 436.561Z" fill="#FBFBFB"/>
</svg>
